# xmcd
# 
# Track frame offsets:
#     150
#     14662
#     30302
#     47588
#     67574
#     84334
#     101848
#     117076
#     134495
#     155399
#     172341
#     188652
#     205141
#     221749
#     237007
#     251368
#     263947
#     277218
#     292957
#     306313
#     321303
#     340653
# 
# Disc length: 4743
# 
# Revision: 8
# Processed by: cddbd v1.5.2PL0 Copyright (c) Steve Scherf et al.
# Submitted via: fre:ac v1.0.31
# 
DISCID=3e128516
DTITLE=The BossHoss - The Very Best Of Greatest Hits (2005 - 2017)
DYEAR=2017
DGENRE=Country
TTITLE0=Jolene Feat. The Common Linnets
TTITLE1=Don't Gimme That
TTITLE2=Hey Ya!
TTITLE3=Wait For Me
TTITLE4=Dos Bros
TTITLE5=Last Day (Do Or Die)
TTITLE6=Live It Up
TTITLE7=Liberty Of Action
TTITLE8=Mary Marry Me
TTITLE9=Yes Or No
TTITLE10=Break Free
TTITLE11=Shake and Shout
TTITLE12=I Like It Like That
TTITLE13=Do It
TTITLE14=Stallion Battalion
TTITLE15=Rodeo Radio
TTITLE16=I Say A Little Prayer
TTITLE17=Sex On Legs
TTITLE18=Lady JD
TTITLE19=Bullpower
TTITLE20=A Cowboys Work Is Never Done
TTITLE21=Sing My Personal Song
EXTD=
EXTT0=
EXTT1=
EXTT2=
EXTT3=
EXTT4=
EXTT5=
EXTT6=
EXTT7=
EXTT8=
EXTT9=
EXTT10=
EXTT11=
EXTT12=
EXTT13=
EXTT14=
EXTT15=
EXTT16=
EXTT17=
EXTT18=
EXTT19=
EXTT20=
EXTT21=
PLAYORDER=
